<?xml version="1.0"?>
<!-- Generated by SVGo -->
<svg width="1510" height="2010"
     xmlns="http://www.w3.org/2000/svg"
     xmlns:xlink="http://www.w3.org/1999/xlink">
<text x="10" y="50" style="font-size:20px;fill:black" >2023-08-08 12:53:15.552482 +0200 CEST m=+0.008227959</text>
<defs>
<marker id="arrowhead" refX="7" refY="2" markerWidth="8" markerHeight="8" orient="auto-start-reverse" >
<path d="M0,0 V4 L8,2 Z" style="fill:black" />
</marker>
</defs>
<rect x="605" y="80" width="100" height="100" style="fill:none;stroke:black" />
<text x="655" y="130" style="text-anchor:middle;font-size:30px;fill:black" >N2-0</text>
<rect x="420" y="330" width="100" height="100" style="fill:none;stroke:black" />
<text x="470" y="380" style="text-anchor:middle;font-size:30px;fill:black" >N8-0</text>
<rect x="1085" y="580" width="150" height="100" style="fill:none;stroke:black" />
<text x="1160" y="630" style="text-anchor:middle;font-size:30px;fill:black" >N13-5</text>
<rect x="1370" y="330" width="100" height="100" style="fill:none;stroke:black" />
<text x="1420" y="380" style="text-anchor:middle;font-size:30px;fill:black" >N15-3</text>
<rect x="580" y="330" width="150" height="100" style="fill:none;stroke:black" />
<text x="655" y="380" style="text-anchor:middle;font-size:30px;fill:black" >N4-1</text>
<rect x="790" y="580" width="100" height="100" style="fill:none;stroke:black" />
<text x="840" y="630" style="text-anchor:middle;font-size:30px;fill:black" >N3-4</text>
<rect x="790" y="830" width="100" height="100" style="fill:none;stroke:black" />
<text x="840" y="880" style="text-anchor:middle;font-size:30px;fill:black" >N1-5</text>
<rect x="420" y="580" width="100" height="100" style="fill:none;stroke:black" />
<text x="470" y="630" style="text-anchor:middle;font-size:30px;fill:black" >N5-2</text>
<rect x="605" y="830" width="100" height="100" style="fill:none;stroke:black" />
<text x="655" y="880" style="text-anchor:middle;font-size:30px;fill:black" >N16-4</text>
<rect x="420" y="1330" width="100" height="100" style="fill:none;stroke:black" />
<text x="470" y="1380" style="text-anchor:middle;font-size:30px;fill:black" >N18-0</text>
<rect x="260" y="1080" width="100" height="100" style="fill:none;stroke:black" />
<text x="310" y="1130" style="text-anchor:middle;font-size:30px;fill:black" >N6-0</text>
<rect x="40" y="830" width="100" height="100" style="fill:none;stroke:black" />
<text x="90" y="880" style="text-anchor:middle;font-size:30px;fill:black" >N7-0</text>
<rect x="40" y="580" width="100" height="100" style="fill:none;stroke:black" />
<text x="90" y="630" style="text-anchor:middle;font-size:30px;fill:black" >N9-0</text>
<rect x="1110" y="1580" width="100" height="100" style="fill:none;stroke:black" />
<text x="1160" y="1630" style="text-anchor:middle;font-size:30px;fill:black" >N10-1</text>
<rect x="1110" y="830" width="100" height="100" style="fill:none;stroke:black" />
<text x="1160" y="880" style="text-anchor:middle;font-size:30px;fill:black" >N14-6</text>
<rect x="605" y="1830" width="100" height="100" style="fill:none;stroke:black" />
<text x="655" y="1880" style="text-anchor:middle;font-size:30px;fill:black" >N19-0</text>
<rect x="865" y="1330" width="100" height="100" style="fill:none;stroke:black" />
<text x="915" y="1380" style="text-anchor:middle;font-size:30px;fill:black" >N11-2</text>
<rect x="865" y="1080" width="100" height="100" style="fill:none;stroke:black" />
<text x="915" y="1130" style="text-anchor:middle;font-size:30px;fill:black" >N12-3</text>
<rect x="605" y="1080" width="100" height="100" style="fill:none;stroke:black" />
<text x="655" y="1130" style="text-anchor:middle;font-size:30px;fill:black" >N17-2</text>
<line x1="655" y1="180" x2="470" y2="330" style="stroke-width:2;fill:none;stroke:black;marker-end:url(#arrowhead)" />
<line x1="655" y1="180" x2="1160" y2="380" style="stroke-width:2;fill:none;stroke:black;" />
<line x1="655" y1="180" x2="1420" y2="330" style="stroke-width:2;fill:none;stroke:black;marker-end:url(#arrowhead)" />
<line x1="655" y1="180" x2="655" y2="330" style="stroke-width:2;fill:none;stroke:black;marker-end:url(#arrowhead)" />
<line x1="840" y1="680" x2="840" y2="830" style="stroke-width:2;fill:none;stroke:black;marker-end:url(#arrowhead)" />
<line x1="655" y1="430" x2="840" y2="580" style="stroke-width:2;fill:none;stroke:black;marker-end:url(#arrowhead)" />
<line x1="470" y1="680" x2="655" y2="830" style="stroke-width:2;fill:none;stroke:black;marker-end:url(#arrowhead)" />
<line x1="470" y1="680" x2="470" y2="880" style="stroke-width:2;fill:none;stroke:black;" />
<line x1="470" y1="430" x2="310" y2="630" style="stroke-width:2;fill:none;stroke:black;marker-start:url(#arrowhead)" />
<line x1="310" y1="1180" x2="470" y2="1330" style="stroke-width:2;fill:none;stroke:black;marker-end:url(#arrowhead)" />
<line x1="90" y1="930" x2="310" y2="1080" style="stroke-width:2;fill:none;stroke:black;marker-end:url(#arrowhead)" />
<line x1="470" y1="430" x2="470" y2="580" style="stroke-width:2;fill:none;stroke:black;marker-end:url(#arrowhead)" />
<line x1="470" y1="430" x2="90" y2="580" style="stroke-width:2;fill:none;stroke:black;marker-end:url(#arrowhead)" />
<line x1="90" y1="680" x2="200" y2="880" style="stroke-width:2;fill:none;stroke:black;" />
<line x1="90" y1="680" x2="90" y2="830" style="stroke-width:2;fill:none;stroke:black;marker-end:url(#arrowhead)" />
<line x1="1160" y1="930" x2="1160" y2="1130" style="stroke-width:2;fill:none;stroke:black;marker-start:url(#arrowhead)" />
<line x1="1160" y1="1680" x2="655" y2="1830" style="stroke-width:2;fill:none;stroke:black;marker-end:url(#arrowhead)" />
<line x1="915" y1="1430" x2="1160" y2="1580" style="stroke-width:2;fill:none;stroke:black;marker-end:url(#arrowhead)" />
<line x1="915" y1="1180" x2="1025" y2="1380" style="stroke-width:2;fill:none;stroke:black;" />
<line x1="915" y1="1180" x2="915" y2="1330" style="stroke-width:2;fill:none;stroke:black;marker-end:url(#arrowhead)" />
<line x1="1160" y1="680" x2="1160" y2="830" style="stroke-width:2;fill:none;stroke:black;marker-end:url(#arrowhead)" />
<line x1="1160" y1="930" x2="655" y2="1080" style="stroke-width:2;fill:none;stroke:black;marker-end:url(#arrowhead)" />
<line x1="1160" y1="930" x2="915" y2="1080" style="stroke-width:2;fill:none;stroke:black;marker-end:url(#arrowhead)" />
<line x1="1420" y1="430" x2="1160" y2="580" style="stroke-width:2;fill:none;stroke:black;marker-end:url(#arrowhead)" />
<line x1="655" y1="430" x2="655" y2="630" style="stroke-width:2;fill:none;stroke:black;marker-start:url(#arrowhead)" />
<line x1="655" y1="930" x2="655" y2="1080" style="stroke-width:2;fill:none;stroke:black;marker-start:url(#arrowhead)" />
<line x1="655" y1="1180" x2="655" y2="1380" style="stroke-width:2;fill:none;stroke:black;" />
<line x1="1160" y1="380" x2="1160" y2="580" style="stroke-width:2;fill:none;stroke:black;marker-end:url(#arrowhead)" />
<line x1="470" y1="880" x2="470" y2="1130" style="stroke-width:2;fill:none;stroke:black;" />
<line x1="310" y1="630" x2="310" y2="880" style="stroke-width:2;fill:none;stroke:black;" />
<line x1="200" y1="880" x2="310" y2="1080" style="stroke-width:2;fill:none;stroke:black;marker-end:url(#arrowhead)" />
<line x1="1160" y1="1130" x2="1160" y2="1380" style="stroke-width:2;fill:none;stroke:black;" />
<line x1="1025" y1="1380" x2="1160" y2="1580" style="stroke-width:2;fill:none;stroke:black;marker-end:url(#arrowhead)" />
<line x1="655" y1="630" x2="655" y2="830" style="stroke-width:2;fill:none;stroke:black;" />
<line x1="655" y1="1380" x2="655" y2="1630" style="stroke-width:2;fill:none;stroke:black;" />
<line x1="470" y1="1130" x2="470" y2="1330" style="stroke-width:2;fill:none;stroke:black;marker-end:url(#arrowhead)" />
<line x1="310" y1="880" x2="310" y2="1080" style="stroke-width:2;fill:none;stroke:black;" />
<line x1="1160" y1="1380" x2="1160" y2="1580" style="stroke-width:2;fill:none;stroke:black;" />
<line x1="655" y1="1630" x2="655" y2="1830" style="stroke-width:2;fill:none;stroke:black;marker-end:url(#arrowhead)" />
<line x1="470" y1="680" x2="470" y2="1330" style="stroke-width:2;fill:none;stroke:black;marker-start:url(#arrowhead)" />
<line x1="655" y1="1180" x2="655" y2="1830" style="stroke-width:2;fill:none;stroke:black;marker-start:url(#arrowhead)" />
</svg>
