<?xml version="1.0"?>
<!-- Generated by SVGo -->
<svg width="1510" height="2010"
     xmlns="http://www.w3.org/2000/svg"
     xmlns:xlink="http://www.w3.org/1999/xlink">
<text x="10" y="50" style="font-size:20px;fill:black" >2023-08-08 16:31:41.398039 +0200 CEST m=+0.008327292</text>
<defs>
<marker id="arrowhead" refX="7" refY="2" markerWidth="8" markerHeight="8" orient="auto-start-reverse" >
<path d="M0,0 V4 L8,2 Z" style="fill:black" />
</marker>
</defs>
<rect x="605" y="80" width="100" height="100" style="fill:none;stroke:black" />
<text x="655" y="130" style="text-anchor:middle;font-size:30px;fill:black" >N2-0</text>
<rect x="420" y="330" width="100" height="100" style="fill:none;stroke:black" />
<text x="470" y="380" style="text-anchor:middle;font-size:30px;fill:black" >N8-0</text>
<rect x="1085" y="580" width="150" height="100" style="fill:none;stroke:black" />
<text x="1160" y="630" style="text-anchor:middle;font-size:30px;fill:black" >N13-5</text>
<rect x="1370" y="330" width="100" height="100" style="fill:none;stroke:black" />
<text x="1420" y="380" style="text-anchor:middle;font-size:30px;fill:black" >N15-3</text>
<rect x="580" y="330" width="150" height="100" style="fill:none;stroke:black" />
<text x="655" y="380" style="text-anchor:middle;font-size:30px;fill:black" >N4-1</text>
<rect x="790" y="580" width="100" height="100" style="fill:none;stroke:black" />
<text x="840" y="630" style="text-anchor:middle;font-size:30px;fill:black" >N3-4</text>
<rect x="790" y="830" width="100" height="100" style="fill:none;stroke:black" />
<text x="840" y="880" style="text-anchor:middle;font-size:30px;fill:black" >N1-5</text>
<rect x="420" y="580" width="100" height="100" style="fill:none;stroke:black" />
<text x="470" y="630" style="text-anchor:middle;font-size:30px;fill:black" >N5-2</text>
<rect x="605" y="830" width="100" height="100" style="fill:none;stroke:black" />
<text x="655" y="880" style="text-anchor:middle;font-size:30px;fill:black" >N16-4</text>
<rect x="420" y="1330" width="100" height="100" style="fill:none;stroke:black" />
<text x="470" y="1380" style="text-anchor:middle;font-size:30px;fill:black" >N18-0</text>
<rect x="260" y="1080" width="100" height="100" style="fill:none;stroke:black" />
<text x="310" y="1130" style="text-anchor:middle;font-size:30px;fill:black" >N6-0</text>
<rect x="40" y="830" width="100" height="100" style="fill:none;stroke:black" />
<text x="90" y="880" style="text-anchor:middle;font-size:30px;fill:black" >N7-0</text>
<rect x="40" y="580" width="100" height="100" style="fill:none;stroke:black" />
<text x="90" y="630" style="text-anchor:middle;font-size:30px;fill:black" >N9-0</text>
<rect x="1110" y="1580" width="100" height="100" style="fill:none;stroke:black" />
<text x="1160" y="1630" style="text-anchor:middle;font-size:30px;fill:black" >N10-1</text>
<rect x="1110" y="830" width="100" height="100" style="fill:none;stroke:black" />
<text x="1160" y="880" style="text-anchor:middle;font-size:30px;fill:black" >N14-6</text>
<rect x="605" y="1830" width="100" height="100" style="fill:none;stroke:black" />
<text x="655" y="1880" style="text-anchor:middle;font-size:30px;fill:black" >N19-0</text>
<rect x="865" y="1330" width="100" height="100" style="fill:none;stroke:black" />
<text x="915" y="1380" style="text-anchor:middle;font-size:30px;fill:black" >N11-2</text>
<rect x="865" y="1080" width="100" height="100" style="fill:none;stroke:black" />
<text x="915" y="1130" style="text-anchor:middle;font-size:30px;fill:black" >N12-3</text>
<rect x="605" y="1080" width="100" height="100" style="fill:none;stroke:black" />
<text x="655" y="1130" style="text-anchor:middle;font-size:30px;fill:black" >N17-2</text>
<polyline points="655,180 470,330" style="stroke-width:2;fill:none;stroke:black" />
<polyline points="655,180 1160,380 1160,580" style="stroke-width:2;fill:none;stroke:black" />
<polyline points="655,180 1420,330" style="stroke-width:2;fill:none;stroke:black" />
<polyline points="655,180 655,330" style="stroke-width:2;fill:none;stroke:black" />
<polyline points="840,680 840,830" style="stroke-width:2;fill:none;stroke:black" />
<polyline points="655,430 840,580" style="stroke-width:2;fill:none;stroke:black" />
<polyline points="470,680 655,830" style="stroke-width:2;fill:none;stroke:black" />
<polyline points="470,680 470,880 470,1130 470,1330" style="stroke-width:2;fill:none;stroke:black" />
<polyline points="470,430 310,630 310,880 310,1080" style="stroke-width:2;fill:none;stroke:black" />
<polyline points="310,1180 470,1330" style="stroke-width:2;fill:none;stroke:black" />
<polyline points="90,930 310,1080" style="stroke-width:2;fill:none;stroke:black" />
<polyline points="470,430 470,580" style="stroke-width:2;fill:none;stroke:black" />
<polyline points="470,430 90,580" style="stroke-width:2;fill:none;stroke:black" />
<polyline points="90,680 200,880 310,1080" style="stroke-width:2;fill:none;stroke:black" />
<polyline points="90,680 90,830" style="stroke-width:2;fill:none;stroke:black" />
<polyline points="1160,930 1160,1130 1160,1380 1160,1580" style="stroke-width:2;fill:none;stroke:black" />
<polyline points="1160,1680 655,1830" style="stroke-width:2;fill:none;stroke:black" />
<polyline points="915,1430 1160,1580" style="stroke-width:2;fill:none;stroke:black" />
<polyline points="915,1180 1025,1380 1160,1580" style="stroke-width:2;fill:none;stroke:black" />
<polyline points="915,1180 915,1330" style="stroke-width:2;fill:none;stroke:black" />
<polyline points="1160,680 1160,830" style="stroke-width:2;fill:none;stroke:black" />
<polyline points="1160,930 655,1080" style="stroke-width:2;fill:none;stroke:black" />
<polyline points="1160,930 915,1080" style="stroke-width:2;fill:none;stroke:black" />
<polyline points="1420,430 1160,580" style="stroke-width:2;fill:none;stroke:black" />
<polyline points="655,430 655,630 655,830" style="stroke-width:2;fill:none;stroke:black" />
<polyline points="655,930 655,1080" style="stroke-width:2;fill:none;stroke:black" />
<polyline points="655,1180 655,1380 655,1630 655,1830" style="stroke-width:2;fill:none;stroke:black" />
</svg>
