<?xml version="1.0"?>
<!-- Generated by SVGo -->
<svg width="1620" height="1660"
     xmlns="http://www.w3.org/2000/svg"
     xmlns:xlink="http://www.w3.org/1999/xlink">
<text x="10" y="50" style="font-size:20px;fill:black" >2023-08-09 09:41:56.063044 +0200 CEST m=+0.015333876</text>
<defs>
<marker id="arrowhead" refX="7" refY="2" markerWidth="8" markerHeight="8" orient="auto-start-reverse" >
<path d="M0,0 V4 L8,2 Z" style="fill:black" />
</marker>
</defs>
<rect x="200" y="80" width="100" height="100" style="fill:none;stroke:black" />
<text x="250" y="130" style="text-anchor:middle;font-size:30px;fill:black" >N2-1</text>
<rect x="40" y="80" width="100" height="100" style="fill:none;stroke:black" />
<text x="90" y="130" style="text-anchor:middle;font-size:30px;fill:black" >N8-0</text>
<rect x="520" y="80" width="150" height="100" style="fill:none;stroke:black" />
<text x="595" y="130" style="text-anchor:middle;font-size:30px;fill:black" >N13-3</text>
<rect x="360" y="80" width="100" height="100" style="fill:none;stroke:black" />
<text x="410" y="130" style="text-anchor:middle;font-size:30px;fill:black" >N15-2</text>
<rect x="400" y="830" width="150" height="100" style="fill:none;stroke:black" />
<text x="475" y="880" style="text-anchor:middle;font-size:30px;fill:black" >N4-1</text>
<rect x="340" y="1230" width="100" height="100" style="fill:none;stroke:black" />
<text x="390" y="1280" style="text-anchor:middle;font-size:30px;fill:black" >N3-0</text>
<rect x="340" y="1480" width="100" height="100" style="fill:none;stroke:black" />
<text x="390" y="1530" style="text-anchor:middle;font-size:30px;fill:black" >N1-0</text>
<rect x="840" y="80" width="100" height="100" style="fill:none;stroke:black" />
<text x="890" y="130" style="text-anchor:middle;font-size:30px;fill:black" >N5-5</text>
<rect x="1160" y="80" width="100" height="100" style="fill:none;stroke:black" />
<text x="1210" y="130" style="text-anchor:middle;font-size:30px;fill:black" >N16-7</text>
<rect x="200" y="580" width="100" height="100" style="fill:none;stroke:black" />
<text x="250" y="630" style="text-anchor:middle;font-size:30px;fill:black" >N18-1</text>
<rect x="40" y="580" width="100" height="100" style="fill:none;stroke:black" />
<text x="90" y="630" style="text-anchor:middle;font-size:30px;fill:black" >N6-0</text>
<rect x="200" y="330" width="100" height="100" style="fill:none;stroke:black" />
<text x="250" y="380" style="text-anchor:middle;font-size:30px;fill:black" >N7-1</text>
<rect x="680" y="80" width="100" height="100" style="fill:none;stroke:black" />
<text x="730" y="130" style="text-anchor:middle;font-size:30px;fill:black" >N9-4</text>
<rect x="240" y="830" width="100" height="100" style="fill:none;stroke:black" />
<text x="290" y="880" style="text-anchor:middle;font-size:30px;fill:black" >N10-0</text>
<rect x="1000" y="80" width="100" height="100" style="fill:none;stroke:black" />
<text x="1050" y="130" style="text-anchor:middle;font-size:30px;fill:black" >N14-6</text>
<rect x="1480" y="80" width="100" height="100" style="fill:none;stroke:black" />
<text x="1530" y="130" style="text-anchor:middle;font-size:30px;fill:black" >N19-9</text>
<rect x="360" y="580" width="100" height="100" style="fill:none;stroke:black" />
<text x="410" y="630" style="text-anchor:middle;font-size:30px;fill:black" >N11-2</text>
<rect x="680" y="330" width="100" height="100" style="fill:none;stroke:black" />
<text x="730" y="380" style="text-anchor:middle;font-size:30px;fill:black" >N12-4</text>
<rect x="1320" y="80" width="100" height="100" style="fill:none;stroke:black" />
<text x="1370" y="130" style="text-anchor:middle;font-size:30px;fill:black" >N17-8</text>
<polyline points="200,130 140,130" style="stroke-width:2;fill:none;stroke:black;marker-end:url(#arrowhead)" />
<polyline points="300,130 520,130" style="stroke-width:2;fill:none;stroke:black;marker-end:url(#arrowhead)" />
<polyline points="300,130 360,130" style="stroke-width:2;fill:none;stroke:black;marker-end:url(#arrowhead)" />
<polyline points="250,180 1000,380 840,630 475,830" style="stroke-width:2;fill:none;stroke:black;marker-end:url(#arrowhead)" />
<polyline points="390,1330 390,1480" style="stroke-width:2;fill:none;stroke:black;marker-end:url(#arrowhead)" />
<polyline points="475,930 340,1080 390,1230" style="stroke-width:2;fill:none;stroke:black;marker-end:url(#arrowhead)" />
<polyline points="940,130 1160,130" style="stroke-width:2;fill:none;stroke:black;marker-end:url(#arrowhead)" />
<polyline points="890,180 520,380 250,580" style="stroke-width:2;fill:none;stroke:black;marker-end:url(#arrowhead)" />
<polyline points="90,180 40,380 90,580" style="stroke-width:2;fill:none;stroke:black;marker-start:url(#arrowhead)" />
<polyline points="140,630 200,630" style="stroke-width:2;fill:none;stroke:black;marker-end:url(#arrowhead)" />
<polyline points="250,430 90,580" style="stroke-width:2;fill:none;stroke:black;marker-end:url(#arrowhead)" />
<polyline points="140,130 840,130" style="stroke-width:2;fill:none;stroke:black;marker-end:url(#arrowhead)" />
<polyline points="140,130 680,130" style="stroke-width:2;fill:none;stroke:black;marker-end:url(#arrowhead)" />
<polyline points="730,180 360,380 90,580" style="stroke-width:2;fill:none;stroke:black;marker-end:url(#arrowhead)" />
<polyline points="730,180 250,330" style="stroke-width:2;fill:none;stroke:black;marker-end:url(#arrowhead)" />
<polyline points="1050,180 840,380 680,630 290,830" style="stroke-width:2;fill:none;stroke:black;marker-start:url(#arrowhead)" />
<polyline points="290,830 1160,630 1530,180" style="stroke-width:2;fill:none;stroke:black;marker-start:url(#arrowhead)" />
<polyline points="410,680 290,830" style="stroke-width:2;fill:none;stroke:black;marker-end:url(#arrowhead)" />
<polyline points="730,430 520,630 290,830" style="stroke-width:2;fill:none;stroke:black;marker-end:url(#arrowhead)" />
<polyline points="730,430 410,580" style="stroke-width:2;fill:none;stroke:black;marker-end:url(#arrowhead)" />
<polyline points="670,130 1000,130" style="stroke-width:2;fill:none;stroke:black;marker-end:url(#arrowhead)" />
<polyline points="1100,130 1320,130" style="stroke-width:2;fill:none;stroke:black;marker-end:url(#arrowhead)" />
<polyline points="1050,180 730,330" style="stroke-width:2;fill:none;stroke:black;marker-end:url(#arrowhead)" />
<polyline points="460,130 520,130" style="stroke-width:2;fill:none;stroke:black;marker-end:url(#arrowhead)" />
<polyline points="475,830 1000,630 1210,180" style="stroke-width:2;fill:none;stroke:black;marker-end:url(#arrowhead)" />
<polyline points="1260,130 1320,130" style="stroke-width:2;fill:none;stroke:black;marker-end:url(#arrowhead)" />
<polyline points="1420,130 1480,130" style="stroke-width:2;fill:none;stroke:black;marker-end:url(#arrowhead)" />
</svg>
