<?xml version="1.0"?>
<!-- Generated by SVGo -->
<svg width="1610" height="2010"
     xmlns="http://www.w3.org/2000/svg"
     xmlns:xlink="http://www.w3.org/1999/xlink">
<text x="10" y="50" style="font-size:20px;fill:black" >2023-08-08 10:57:45.705409 +0200 CEST m=+0.003998084</text>
<rect x="705" y="80" width="100" height="100" style="fill:none;stroke:black" />
<text x="755" y="130" style="text-anchor:middle;font-size:30px;fill:black" >N2-0</text>
<rect x="520" y="330" width="100" height="100" style="fill:none;stroke:black" />
<text x="570" y="380" style="text-anchor:middle;font-size:30px;fill:black" >N8-0</text>
<rect x="1235" y="580" width="150" height="100" style="fill:none;stroke:black" />
<text x="1310" y="630" style="text-anchor:middle;font-size:30px;fill:black" >N13-5</text>
<rect x="1470" y="330" width="100" height="100" style="fill:none;stroke:black" />
<text x="1520" y="380" style="text-anchor:middle;font-size:30px;fill:black" >N15-3</text>
<rect x="680" y="330" width="150" height="100" style="fill:none;stroke:black" />
<text x="755" y="380" style="text-anchor:middle;font-size:30px;fill:black" >N4-1</text>
<rect x="890" y="580" width="100" height="100" style="fill:none;stroke:black" />
<text x="940" y="630" style="text-anchor:middle;font-size:30px;fill:black" >N3-4</text>
<rect x="890" y="830" width="100" height="100" style="fill:none;stroke:black" />
<text x="940" y="880" style="text-anchor:middle;font-size:30px;fill:black" >N1-5</text>
<rect x="520" y="580" width="100" height="100" style="fill:none;stroke:black" />
<text x="570" y="630" style="text-anchor:middle;font-size:30px;fill:black" >N5-2</text>
<rect x="705" y="830" width="100" height="100" style="fill:none;stroke:black" />
<text x="755" y="880" style="text-anchor:middle;font-size:30px;fill:black" >N16-4</text>
<rect x="520" y="1330" width="100" height="100" style="fill:none;stroke:black" />
<text x="570" y="1380" style="text-anchor:middle;font-size:30px;fill:black" >N18-0</text>
<rect x="360" y="1080" width="100" height="100" style="fill:none;stroke:black" />
<text x="410" y="1130" style="text-anchor:middle;font-size:30px;fill:black" >N6-0</text>
<rect x="40" y="830" width="100" height="100" style="fill:none;stroke:black" />
<text x="90" y="880" style="text-anchor:middle;font-size:30px;fill:black" >N7-0</text>
<rect x="40" y="580" width="100" height="100" style="fill:none;stroke:black" />
<text x="90" y="630" style="text-anchor:middle;font-size:30px;fill:black" >N9-0</text>
<rect x="1260" y="1580" width="100" height="100" style="fill:none;stroke:black" />
<text x="1310" y="1630" style="text-anchor:middle;font-size:30px;fill:black" >N10-1</text>
<rect x="1260" y="830" width="100" height="100" style="fill:none;stroke:black" />
<text x="1310" y="880" style="text-anchor:middle;font-size:30px;fill:black" >N14-6</text>
<rect x="705" y="1830" width="100" height="100" style="fill:none;stroke:black" />
<text x="755" y="1880" style="text-anchor:middle;font-size:30px;fill:black" >N19-0</text>
<rect x="915" y="1330" width="100" height="100" style="fill:none;stroke:black" />
<text x="965" y="1380" style="text-anchor:middle;font-size:30px;fill:black" >N11-2</text>
<rect x="915" y="1080" width="100" height="100" style="fill:none;stroke:black" />
<text x="965" y="1130" style="text-anchor:middle;font-size:30px;fill:black" >N12-3</text>
<rect x="705" y="1080" width="100" height="100" style="fill:none;stroke:black" />
<text x="755" y="1130" style="text-anchor:middle;font-size:30px;fill:black" >N17-2</text>
<rect x="1260" y="330" width="100" height="100" style="fill:none;stroke:black" />
<text x="1310" y="380" style="text-anchor:middle;font-size:30px;fill:black" >V1-2</text>
<rect x="520" y="830" width="100" height="100" style="fill:none;stroke:black" />
<text x="570" y="880" style="text-anchor:middle;font-size:30px;fill:black" >V2-3</text>
<rect x="360" y="580" width="100" height="100" style="fill:none;stroke:black" />
<text x="410" y="630" style="text-anchor:middle;font-size:30px;fill:black" >V3-1</text>
<rect x="200" y="830" width="100" height="100" style="fill:none;stroke:black" />
<text x="250" y="880" style="text-anchor:middle;font-size:30px;fill:black" >V4-1</text>
<rect x="1260" y="1080" width="100" height="100" style="fill:none;stroke:black" />
<text x="1310" y="1130" style="text-anchor:middle;font-size:30px;fill:black" >V5-4</text>
<rect x="1075" y="1330" width="100" height="100" style="fill:none;stroke:black" />
<text x="1125" y="1380" style="text-anchor:middle;font-size:30px;fill:black" >V6-3</text>
<rect x="705" y="580" width="100" height="100" style="fill:none;stroke:black" />
<text x="755" y="630" style="text-anchor:middle;font-size:30px;fill:black" >V7-3</text>
<rect x="705" y="1330" width="100" height="100" style="fill:none;stroke:black" />
<text x="755" y="1380" style="text-anchor:middle;font-size:30px;fill:black" >V8-1</text>
<rect x="520" y="1080" width="100" height="100" style="fill:none;stroke:black" />
<text x="570" y="1130" style="text-anchor:middle;font-size:30px;fill:black" >V9-1</text>
<rect x="360" y="830" width="100" height="100" style="fill:none;stroke:black" />
<text x="410" y="880" style="text-anchor:middle;font-size:30px;fill:black" >V10-2</text>
<rect x="1260" y="1330" width="100" height="100" style="fill:none;stroke:black" />
<text x="1310" y="1380" style="text-anchor:middle;font-size:30px;fill:black" >V11-4</text>
<rect x="705" y="1580" width="100" height="100" style="fill:none;stroke:black" />
<text x="755" y="1630" style="text-anchor:middle;font-size:30px;fill:black" >V12-0</text>
<line x1="755" y1="180" x2="570" y2="330" style="stroke-width:2;fill:none;stroke:black" />
<line x1="755" y1="180" x2="1310" y2="330" style="stroke-width:2;fill:none;stroke:black" />
<line x1="755" y1="180" x2="1520" y2="330" style="stroke-width:2;fill:none;stroke:black" />
<line x1="755" y1="180" x2="755" y2="330" style="stroke-width:2;fill:none;stroke:black" />
<line x1="940" y1="680" x2="940" y2="830" style="stroke-width:2;fill:none;stroke:black" />
<line x1="755" y1="430" x2="940" y2="580" style="stroke-width:2;fill:none;stroke:black" />
<line x1="570" y1="680" x2="755" y2="830" style="stroke-width:2;fill:none;stroke:black" />
<line x1="570" y1="680" x2="570" y2="830" style="stroke-width:2;fill:none;stroke:black" />
<line x1="570" y1="430" x2="410" y2="580" style="stroke-width:2;fill:none;stroke:black" />
<line x1="410" y1="1180" x2="570" y2="1330" style="stroke-width:2;fill:none;stroke:black" />
<line x1="90" y1="930" x2="410" y2="1080" style="stroke-width:2;fill:none;stroke:black" />
<line x1="570" y1="430" x2="570" y2="580" style="stroke-width:2;fill:none;stroke:black" />
<line x1="570" y1="430" x2="90" y2="580" style="stroke-width:2;fill:none;stroke:black" />
<line x1="90" y1="680" x2="250" y2="830" style="stroke-width:2;fill:none;stroke:black" />
<line x1="90" y1="680" x2="90" y2="830" style="stroke-width:2;fill:none;stroke:black" />
<line x1="1310" y1="930" x2="1310" y2="1080" style="stroke-width:2;fill:none;stroke:black" />
<line x1="1310" y1="1680" x2="755" y2="1830" style="stroke-width:2;fill:none;stroke:black" />
<line x1="965" y1="1430" x2="1310" y2="1580" style="stroke-width:2;fill:none;stroke:black" />
<line x1="965" y1="1180" x2="1125" y2="1330" style="stroke-width:2;fill:none;stroke:black" />
<line x1="965" y1="1180" x2="965" y2="1330" style="stroke-width:2;fill:none;stroke:black" />
<line x1="1310" y1="680" x2="1310" y2="830" style="stroke-width:2;fill:none;stroke:black" />
<line x1="1310" y1="930" x2="755" y2="1080" style="stroke-width:2;fill:none;stroke:black" />
<line x1="1310" y1="930" x2="965" y2="1080" style="stroke-width:2;fill:none;stroke:black" />
<line x1="1520" y1="430" x2="1310" y2="580" style="stroke-width:2;fill:none;stroke:black" />
<line x1="755" y1="430" x2="755" y2="580" style="stroke-width:2;fill:none;stroke:black" />
<line x1="755" y1="930" x2="755" y2="1080" style="stroke-width:2;fill:none;stroke:black" />
<line x1="755" y1="1180" x2="755" y2="1330" style="stroke-width:2;fill:none;stroke:black" />
<line x1="1310" y1="430" x2="1310" y2="580" style="stroke-width:2;fill:none;stroke:black" />
<line x1="570" y1="930" x2="570" y2="1080" style="stroke-width:2;fill:none;stroke:black" />
<line x1="410" y1="680" x2="410" y2="830" style="stroke-width:2;fill:none;stroke:black" />
<line x1="250" y1="930" x2="410" y2="1080" style="stroke-width:2;fill:none;stroke:black" />
<line x1="1310" y1="1180" x2="1310" y2="1330" style="stroke-width:2;fill:none;stroke:black" />
<line x1="1125" y1="1430" x2="1310" y2="1580" style="stroke-width:2;fill:none;stroke:black" />
<line x1="755" y1="680" x2="755" y2="830" style="stroke-width:2;fill:none;stroke:black" />
<line x1="755" y1="1430" x2="755" y2="1580" style="stroke-width:2;fill:none;stroke:black" />
<line x1="570" y1="1180" x2="570" y2="1330" style="stroke-width:2;fill:none;stroke:black" />
<line x1="410" y1="930" x2="410" y2="1080" style="stroke-width:2;fill:none;stroke:black" />
<line x1="1310" y1="1430" x2="1310" y2="1580" style="stroke-width:2;fill:none;stroke:black" />
<line x1="755" y1="1680" x2="755" y2="1830" style="stroke-width:2;fill:none;stroke:black" />
<line x1="570" y1="680" x2="570" y2="1330" style="stroke-width:2;fill:none;stroke:black" />
<line x1="755" y1="1180" x2="755" y2="1830" style="stroke-width:2;fill:none;stroke:black" />
</svg>
